<mxfile host="app.diagrams.net" agent="Mozilla/5.0 (Windows NT 10.0; Win64; x64) AppleWebKit/537.36 (KHTML, like Gecko) Chrome/127.0.0.0 Safari/537.36" version="24.7.7">
  <diagram name="PÃ¡gina-1" id="pZLGCcorovbGt57ALyU_">
    <mxGraphModel dx="989" dy="537" grid="1" gridSize="10" guides="1" tooltips="1" connect="1" arrows="1" fold="1" page="1" pageScale="1" pageWidth="827" pageHeight="1169" math="0" shadow="0">
      <root>
        <mxCell id="0" />
        <mxCell id="1" parent="0" />
        <mxCell id="0JsRNtkwK--oWNHgLMNd-1" value="Attribute" style="ellipse;whiteSpace=wrap;html=1;align=center;" parent="1" vertex="1">
          <mxGeometry x="10" y="60" width="100" height="40" as="geometry" />
        </mxCell>
        <mxCell id="0JsRNtkwK--oWNHgLMNd-2" value="Entity" style="whiteSpace=wrap;html=1;align=center;" parent="1" vertex="1">
          <mxGeometry x="10" y="20" width="100" height="40" as="geometry" />
        </mxCell>
        <mxCell id="0JsRNtkwK--oWNHgLMNd-3" value="Relationship" style="shape=rhombus;perimeter=rhombusPerimeter;whiteSpace=wrap;html=1;align=center;" parent="1" vertex="1">
          <mxGeometry x="5" y="100" width="110" height="60" as="geometry" />
        </mxCell>
        <mxCell id="0JsRNtkwK--oWNHgLMNd-81" style="rounded=0;orthogonalLoop=1;jettySize=auto;html=1;exitX=1;exitY=0.5;exitDx=0;exitDy=0;entryX=0;entryY=0.5;entryDx=0;entryDy=0;endArrow=none;endFill=0;" parent="1" source="0JsRNtkwK--oWNHgLMNd-4" target="0JsRNtkwK--oWNHgLMNd-17" edge="1">
          <mxGeometry relative="1" as="geometry" />
        </mxCell>
        <mxCell id="0JsRNtkwK--oWNHgLMNd-4" value="Empresa" style="whiteSpace=wrap;html=1;align=center;" parent="1" vertex="1">
          <mxGeometry x="320" y="200" width="100" height="40" as="geometry" />
        </mxCell>
        <mxCell id="0JsRNtkwK--oWNHgLMNd-87" style="rounded=0;orthogonalLoop=1;jettySize=auto;html=1;exitX=0.5;exitY=1;exitDx=0;exitDy=0;entryX=0.5;entryY=0;entryDx=0;entryDy=0;endArrow=none;endFill=0;" parent="1" source="0JsRNtkwK--oWNHgLMNd-5" target="0JsRNtkwK--oWNHgLMNd-86" edge="1">
          <mxGeometry relative="1" as="geometry" />
        </mxCell>
        <mxCell id="0JsRNtkwK--oWNHgLMNd-5" value="Vaga" style="whiteSpace=wrap;html=1;align=center;" parent="1" vertex="1">
          <mxGeometry x="600" y="200" width="100" height="40" as="geometry" />
        </mxCell>
        <mxCell id="0JsRNtkwK--oWNHgLMNd-7" value="identificador" style="ellipse;whiteSpace=wrap;html=1;align=left;spacingRight=0;spacingTop=40;spacingLeft=10;" parent="1" vertex="1">
          <mxGeometry x="710" y="260" width="30" height="20" as="geometry" />
        </mxCell>
        <mxCell id="0JsRNtkwK--oWNHgLMNd-8" value="" style="endArrow=none;html=1;rounded=0;entryX=0.332;entryY=0.004;entryDx=0;entryDy=0;entryPerimeter=0;exitX=1;exitY=1;exitDx=0;exitDy=0;" parent="1" source="0JsRNtkwK--oWNHgLMNd-5" target="0JsRNtkwK--oWNHgLMNd-7" edge="1">
          <mxGeometry relative="1" as="geometry">
            <mxPoint x="700" y="250" as="sourcePoint" />
            <mxPoint x="730" y="250" as="targetPoint" />
          </mxGeometry>
        </mxCell>
        <mxCell id="0JsRNtkwK--oWNHgLMNd-9" value="&lt;span style=&quot;text-wrap: nowrap;&quot;&gt;status&lt;/span&gt;" style="ellipse;whiteSpace=wrap;html=1;align=center;spacingTop=30;spacingLeft=5;" parent="1" vertex="1">
          <mxGeometry x="740" y="250" width="30" height="20" as="geometry" />
        </mxCell>
        <mxCell id="0JsRNtkwK--oWNHgLMNd-12" value="" style="endArrow=none;html=1;rounded=0;entryX=0;entryY=0;entryDx=0;entryDy=0;exitX=1;exitY=0.75;exitDx=0;exitDy=0;" parent="1" source="0JsRNtkwK--oWNHgLMNd-5" target="0JsRNtkwK--oWNHgLMNd-9" edge="1">
          <mxGeometry relative="1" as="geometry">
            <mxPoint x="720" y="240" as="sourcePoint" />
            <mxPoint x="740" y="250" as="targetPoint" />
          </mxGeometry>
        </mxCell>
        <mxCell id="0JsRNtkwK--oWNHgLMNd-82" style="rounded=0;orthogonalLoop=1;jettySize=auto;html=1;exitX=1;exitY=0.5;exitDx=0;exitDy=0;entryX=0;entryY=0.5;entryDx=0;entryDy=0;endArrow=none;endFill=0;" parent="1" source="0JsRNtkwK--oWNHgLMNd-17" target="0JsRNtkwK--oWNHgLMNd-5" edge="1">
          <mxGeometry relative="1" as="geometry" />
        </mxCell>
        <mxCell id="0JsRNtkwK--oWNHgLMNd-17" value="Gerencia" style="shape=rhombus;perimeter=rhombusPerimeter;whiteSpace=wrap;html=1;align=center;" parent="1" vertex="1">
          <mxGeometry x="460" y="195" width="100" height="50" as="geometry" />
        </mxCell>
        <mxCell id="0JsRNtkwK--oWNHgLMNd-89" style="rounded=0;orthogonalLoop=1;jettySize=auto;html=1;exitX=0;exitY=0.75;exitDx=0;exitDy=0;entryX=1;entryY=0.5;entryDx=0;entryDy=0;endArrow=none;endFill=0;" parent="1" source="0JsRNtkwK--oWNHgLMNd-20" target="0JsRNtkwK--oWNHgLMNd-46" edge="1">
          <mxGeometry relative="1" as="geometry" />
        </mxCell>
        <mxCell id="0JsRNtkwK--oWNHgLMNd-20" value="Cliente avulso" style="whiteSpace=wrap;html=1;align=center;" parent="1" vertex="1">
          <mxGeometry x="320" y="440" width="100" height="40" as="geometry" />
        </mxCell>
        <mxCell id="G5d9eGnUH0jCPvQnNHnE-12" style="rounded=0;orthogonalLoop=1;jettySize=auto;html=1;exitX=0;exitY=1;exitDx=0;exitDy=0;endArrow=none;endFill=0;" edge="1" parent="1" source="0JsRNtkwK--oWNHgLMNd-21">
          <mxGeometry relative="1" as="geometry">
            <mxPoint x="430" y="510" as="targetPoint" />
          </mxGeometry>
        </mxCell>
        <mxCell id="0JsRNtkwK--oWNHgLMNd-21" value="Pega" style="shape=rhombus;perimeter=rhombusPerimeter;whiteSpace=wrap;html=1;align=center;" parent="1" vertex="1">
          <mxGeometry x="470" y="460" width="100" height="50" as="geometry" />
        </mxCell>
        <mxCell id="G5d9eGnUH0jCPvQnNHnE-13" style="rounded=0;orthogonalLoop=1;jettySize=auto;html=1;exitX=1;exitY=0;exitDx=0;exitDy=0;entryX=0;entryY=0.5;entryDx=0;entryDy=0;endArrow=none;endFill=0;" edge="1" parent="1" source="0JsRNtkwK--oWNHgLMNd-26" target="0JsRNtkwK--oWNHgLMNd-86">
          <mxGeometry relative="1" as="geometry" />
        </mxCell>
        <mxCell id="G5d9eGnUH0jCPvQnNHnE-17" style="rounded=0;orthogonalLoop=1;jettySize=auto;html=1;exitX=1;exitY=1;exitDx=0;exitDy=0;entryX=0;entryY=0;entryDx=0;entryDy=0;endArrow=none;endFill=0;" edge="1" parent="1" source="0JsRNtkwK--oWNHgLMNd-26" target="G5d9eGnUH0jCPvQnNHnE-1">
          <mxGeometry relative="1" as="geometry" />
        </mxCell>
        <mxCell id="0JsRNtkwK--oWNHgLMNd-26" value="Carro" style="whiteSpace=wrap;html=1;align=center;" parent="1" vertex="1">
          <mxGeometry x="460" y="320" width="100" height="40" as="geometry" />
        </mxCell>
        <mxCell id="G5d9eGnUH0jCPvQnNHnE-19" style="rounded=0;orthogonalLoop=1;jettySize=auto;html=1;exitX=0;exitY=1;exitDx=0;exitDy=0;entryX=1;entryY=0.5;entryDx=0;entryDy=0;endArrow=none;endFill=0;" edge="1" parent="1" source="0JsRNtkwK--oWNHgLMNd-31" target="0JsRNtkwK--oWNHgLMNd-21">
          <mxGeometry relative="1" as="geometry" />
        </mxCell>
        <mxCell id="0JsRNtkwK--oWNHgLMNd-31" value="Manobrista" style="whiteSpace=wrap;html=1;align=center;" parent="1" vertex="1">
          <mxGeometry x="690" y="430" width="100" height="40" as="geometry" />
        </mxCell>
        <mxCell id="0JsRNtkwK--oWNHgLMNd-42" value="&lt;span style=&quot;text-wrap: nowrap;&quot;&gt;placa&lt;/span&gt;" style="ellipse;whiteSpace=wrap;html=1;align=right;spacingRight=30;" parent="1" vertex="1">
          <mxGeometry x="130" y="660" width="30" height="20" as="geometry" />
        </mxCell>
        <mxCell id="0JsRNtkwK--oWNHgLMNd-46" value="Recebe" style="shape=rhombus;perimeter=rhombusPerimeter;whiteSpace=wrap;html=1;align=center;" parent="1" vertex="1">
          <mxGeometry x="180" y="470" width="110" height="50" as="geometry" />
        </mxCell>
        <mxCell id="0JsRNtkwK--oWNHgLMNd-69" style="rounded=0;orthogonalLoop=1;jettySize=auto;html=1;exitX=0;exitY=0;exitDx=0;exitDy=0;entryX=1;entryY=0.5;entryDx=0;entryDy=0;endArrow=none;endFill=0;" parent="1" source="0JsRNtkwK--oWNHgLMNd-48" target="0JsRNtkwK--oWNHgLMNd-53" edge="1">
          <mxGeometry relative="1" as="geometry" />
        </mxCell>
        <mxCell id="0JsRNtkwK--oWNHgLMNd-70" style="rounded=0;orthogonalLoop=1;jettySize=auto;html=1;exitX=0;exitY=0.5;exitDx=0;exitDy=0;entryX=1;entryY=0;entryDx=0;entryDy=0;endArrow=none;endFill=0;" parent="1" source="0JsRNtkwK--oWNHgLMNd-48" target="0JsRNtkwK--oWNHgLMNd-55" edge="1">
          <mxGeometry relative="1" as="geometry" />
        </mxCell>
        <mxCell id="0JsRNtkwK--oWNHgLMNd-71" style="rounded=0;orthogonalLoop=1;jettySize=auto;html=1;exitX=0;exitY=1;exitDx=0;exitDy=0;entryX=1;entryY=0;entryDx=0;entryDy=0;endArrow=none;endFill=0;" parent="1" source="0JsRNtkwK--oWNHgLMNd-48" target="0JsRNtkwK--oWNHgLMNd-42" edge="1">
          <mxGeometry relative="1" as="geometry" />
        </mxCell>
        <mxCell id="0JsRNtkwK--oWNHgLMNd-72" style="rounded=0;orthogonalLoop=1;jettySize=auto;html=1;exitX=0;exitY=1;exitDx=0;exitDy=0;entryX=0.5;entryY=0;entryDx=0;entryDy=0;endArrow=none;endFill=0;" parent="1" source="0JsRNtkwK--oWNHgLMNd-48" target="0JsRNtkwK--oWNHgLMNd-64" edge="1">
          <mxGeometry relative="1" as="geometry" />
        </mxCell>
        <mxCell id="0JsRNtkwK--oWNHgLMNd-73" style="rounded=0;orthogonalLoop=1;jettySize=auto;html=1;exitX=0.25;exitY=1;exitDx=0;exitDy=0;entryX=0;entryY=0;entryDx=0;entryDy=0;endArrow=none;endFill=0;" parent="1" source="0JsRNtkwK--oWNHgLMNd-48" target="0JsRNtkwK--oWNHgLMNd-63" edge="1">
          <mxGeometry relative="1" as="geometry" />
        </mxCell>
        <mxCell id="0JsRNtkwK--oWNHgLMNd-76" style="rounded=0;orthogonalLoop=1;jettySize=auto;html=1;exitX=0;exitY=0;exitDx=0;exitDy=0;entryX=1;entryY=1;entryDx=0;entryDy=0;endArrow=none;endFill=0;" parent="1" source="0JsRNtkwK--oWNHgLMNd-48" target="0JsRNtkwK--oWNHgLMNd-54" edge="1">
          <mxGeometry relative="1" as="geometry" />
        </mxCell>
        <mxCell id="0JsRNtkwK--oWNHgLMNd-80" style="rounded=0;orthogonalLoop=1;jettySize=auto;html=1;exitX=0;exitY=0;exitDx=0;exitDy=0;entryX=0;entryY=1;entryDx=0;entryDy=0;endArrow=none;endFill=0;" parent="1" source="0JsRNtkwK--oWNHgLMNd-48" target="0JsRNtkwK--oWNHgLMNd-79" edge="1">
          <mxGeometry relative="1" as="geometry" />
        </mxCell>
        <mxCell id="0JsRNtkwK--oWNHgLMNd-48" value="Ticket" style="whiteSpace=wrap;html=1;align=center;" parent="1" vertex="1">
          <mxGeometry x="180" y="600" width="100" height="40" as="geometry" />
        </mxCell>
        <mxCell id="0JsRNtkwK--oWNHgLMNd-53" value="&lt;span style=&quot;text-wrap: nowrap;&quot;&gt;cor do veiculo&lt;/span&gt;" style="ellipse;whiteSpace=wrap;html=1;align=right;spacingRight=30;" parent="1" vertex="1">
          <mxGeometry x="110" y="600" width="30" height="20" as="geometry" />
        </mxCell>
        <mxCell id="0JsRNtkwK--oWNHgLMNd-54" value="hora&lt;br&gt;saida" style="ellipse;whiteSpace=wrap;html=1;align=right;spacingRight=30;" parent="1" vertex="1">
          <mxGeometry x="110" y="570" width="30" height="20" as="geometry" />
        </mxCell>
        <mxCell id="0JsRNtkwK--oWNHgLMNd-55" value="&lt;span style=&quot;text-wrap: nowrap;&quot;&gt;marca&lt;/span&gt;" style="ellipse;whiteSpace=wrap;html=1;align=right;spacingRight=30;" parent="1" vertex="1">
          <mxGeometry x="120" y="630" width="30" height="20" as="geometry" />
        </mxCell>
        <mxCell id="0JsRNtkwK--oWNHgLMNd-63" value="&lt;span style=&quot;text-wrap: nowrap;&quot;&gt;&lt;font style=&quot;font-size: 12px;&quot;&gt;hora&lt;br&gt;entrada&lt;/font&gt;&lt;/span&gt;" style="ellipse;whiteSpace=wrap;html=1;align=left;perimeterSpacing=0;spacingLeft=35;" parent="1" vertex="1">
          <mxGeometry x="240" y="670" width="30" height="20" as="geometry" />
        </mxCell>
        <mxCell id="0JsRNtkwK--oWNHgLMNd-64" value="&lt;span style=&quot;text-wrap: nowrap;&quot;&gt;numero&lt;br&gt;vaga&lt;/span&gt;" style="ellipse;whiteSpace=wrap;html=1;align=center;spacingBottom=0;spacingTop=42;" parent="1" vertex="1">
          <mxGeometry x="180" y="670" width="30" height="20" as="geometry" />
        </mxCell>
        <mxCell id="G5d9eGnUH0jCPvQnNHnE-5" style="rounded=0;orthogonalLoop=1;jettySize=auto;html=1;exitX=0.25;exitY=1;exitDx=0;exitDy=0;entryX=0.5;entryY=0;entryDx=0;entryDy=0;endArrow=none;endFill=0;" edge="1" parent="1" source="0JsRNtkwK--oWNHgLMNd-74" target="G5d9eGnUH0jCPvQnNHnE-4">
          <mxGeometry relative="1" as="geometry" />
        </mxCell>
        <mxCell id="G5d9eGnUH0jCPvQnNHnE-10" style="rounded=0;orthogonalLoop=1;jettySize=auto;html=1;exitX=0.5;exitY=0;exitDx=0;exitDy=0;entryX=1;entryY=1;entryDx=0;entryDy=0;endArrow=none;endFill=0;" edge="1" parent="1" source="0JsRNtkwK--oWNHgLMNd-74" target="0JsRNtkwK--oWNHgLMNd-20">
          <mxGeometry relative="1" as="geometry" />
        </mxCell>
        <mxCell id="0JsRNtkwK--oWNHgLMNd-74" value="Cliente mensalista" style="whiteSpace=wrap;html=1;align=center;" parent="1" vertex="1">
          <mxGeometry x="390" y="530" width="100" height="40" as="geometry" />
        </mxCell>
        <mxCell id="0JsRNtkwK--oWNHgLMNd-77" value="valor&lt;br&gt;fixo" style="ellipse;whiteSpace=wrap;html=1;align=right;spacingRight=30;spacingBottom=10;" parent="1" vertex="1">
          <mxGeometry x="145" y="550" width="30" height="20" as="geometry" />
        </mxCell>
        <mxCell id="0JsRNtkwK--oWNHgLMNd-78" style="rounded=0;orthogonalLoop=1;jettySize=auto;html=1;exitX=0;exitY=0;exitDx=0;exitDy=0;entryX=0.5;entryY=1;entryDx=0;entryDy=0;endArrow=none;endFill=0;" parent="1" source="0JsRNtkwK--oWNHgLMNd-48" target="0JsRNtkwK--oWNHgLMNd-77" edge="1">
          <mxGeometry relative="1" as="geometry" />
        </mxCell>
        <mxCell id="0JsRNtkwK--oWNHgLMNd-79" value="valor&lt;br&gt;&lt;div style=&quot;&quot;&gt;&lt;span style=&quot;background-color: initial;&quot;&gt;estacionamento&lt;/span&gt;&lt;/div&gt;" style="ellipse;whiteSpace=wrap;html=1;align=center;spacingRight=20;spacingBottom=58;" parent="1" vertex="1">
          <mxGeometry x="180" y="550" width="30" height="20" as="geometry" />
        </mxCell>
        <mxCell id="0JsRNtkwK--oWNHgLMNd-86" value="Ocupa" style="shape=rhombus;perimeter=rhombusPerimeter;whiteSpace=wrap;html=1;align=center;" parent="1" vertex="1">
          <mxGeometry x="595" y="260" width="110" height="50" as="geometry" />
        </mxCell>
        <mxCell id="0JsRNtkwK--oWNHgLMNd-90" style="rounded=0;orthogonalLoop=1;jettySize=auto;html=1;exitX=0.5;exitY=1;exitDx=0;exitDy=0;endArrow=none;endFill=0;" parent="1" source="0JsRNtkwK--oWNHgLMNd-46" edge="1">
          <mxGeometry relative="1" as="geometry">
            <mxPoint x="210" y="600" as="targetPoint" />
          </mxGeometry>
        </mxCell>
        <mxCell id="G5d9eGnUH0jCPvQnNHnE-18" style="rounded=0;orthogonalLoop=1;jettySize=auto;html=1;exitX=1;exitY=1;exitDx=0;exitDy=0;entryX=0;entryY=0;entryDx=0;entryDy=0;endArrow=none;endFill=0;" edge="1" parent="1" source="G5d9eGnUH0jCPvQnNHnE-1" target="0JsRNtkwK--oWNHgLMNd-31">
          <mxGeometry relative="1" as="geometry" />
        </mxCell>
        <mxCell id="G5d9eGnUH0jCPvQnNHnE-1" value="Manobra" style="shape=rhombus;perimeter=rhombusPerimeter;whiteSpace=wrap;html=1;align=center;" vertex="1" parent="1">
          <mxGeometry x="605" y="350" width="100" height="50" as="geometry" />
        </mxCell>
        <mxCell id="G5d9eGnUH0jCPvQnNHnE-9" style="rounded=0;orthogonalLoop=1;jettySize=auto;html=1;exitX=0.5;exitY=1;exitDx=0;exitDy=0;entryX=0.5;entryY=0;entryDx=0;entryDy=0;endArrow=none;endFill=0;" edge="1" parent="1" source="G5d9eGnUH0jCPvQnNHnE-4" target="G5d9eGnUH0jCPvQnNHnE-8">
          <mxGeometry relative="1" as="geometry" />
        </mxCell>
        <mxCell id="G5d9eGnUH0jCPvQnNHnE-4" value="Paga" style="shape=rhombus;perimeter=rhombusPerimeter;whiteSpace=wrap;html=1;align=center;" vertex="1" parent="1">
          <mxGeometry x="330" y="590" width="110" height="50" as="geometry" />
        </mxCell>
        <mxCell id="G5d9eGnUH0jCPvQnNHnE-8" value="Valor fixo mensal" style="whiteSpace=wrap;html=1;align=center;" vertex="1" parent="1">
          <mxGeometry x="335" y="670" width="100" height="40" as="geometry" />
        </mxCell>
      </root>
    </mxGraphModel>
  </diagram>
</mxfile>
